<svg width="677" height="798" viewBox="0 0 677 798" fill="none" xmlns="http://www.w3.org/2000/svg">
<g opacity="0.93">
<rect y="246" width="3" height="3" fill="#C4C4C4"/>
</g>
<g opacity="0.9" clip-path="url(#clip0)">
<path d="M113 726.778L113 228.222C113 189.05 143.225 157 180.167 157L448.833 157C485.775 157 516 189.05 516 228.222L516 726.778C516 765.95 485.775 798 448.833 798L180.167 798C143.225 798 113 765.95 113 726.778ZM448.833 691.167L448.833 263.833C448.833 244.247 433.721 228.222 415.25 228.222L213.75 228.222C195.279 228.222 180.167 244.247 180.167 263.833L180.167 691.167C180.167 710.753 195.279 726.778 213.75 726.778H415.25C433.721 726.778 448.833 710.753 448.833 691.167Z" fill="#15726A"/>
</g>
<g opacity="0.9" clip-path="url(#clip1)">
<path d="M193 647.889L193 150.111C193 111 223.225 79 260.167 79L528.833 79C565.775 79 596 111 596 150.111L596 647.889C596 687 565.775 719 528.833 719L260.167 719C223.225 719 193 687 193 647.889ZM528.833 612.333L528.833 185.667C528.833 166.111 513.721 150.111 495.25 150.111L293.75 150.111C275.279 150.111 260.167 166.111 260.167 185.667L260.167 612.333C260.167 631.889 275.279 647.889 293.75 647.889H495.25C513.721 647.889 528.833 631.889 528.833 612.333Z" fill="#1FC7AF"/>
</g>
<path opacity="0.9" d="M274 569.778L274 71.2222C274 32.05 304.225 0 341.167 0L609.833 0C646.775 0 677 32.05 677 71.2222L677 569.778C677 608.95 646.775 641 609.833 641L341.167 641C304.225 641 274 608.95 274 569.778ZM609.833 534.167L609.833 106.833C609.833 87.2472 594.721 71.2222 576.25 71.2222L374.75 71.2222C356.279 71.2222 341.167 87.2472 341.167 106.833L341.167 534.167C341.167 553.753 356.279 569.778 374.75 569.778L576.25 569.778C594.721 569.778 609.833 553.753 609.833 534.167Z" fill="#00FFA5" fill-opacity="0.9"/>
<defs>
<clipPath id="clip0">
<rect width="403" height="641" fill="white" transform="translate(113 157)"/>
</clipPath>
<clipPath id="clip1">
<rect width="403" height="640" fill="white" transform="translate(193 79)"/>
</clipPath>
</defs>
</svg>
